<svg width="20" height="20" viewBox="0 0 20 20" fill="none" xmlns="http://www.w3.org/2000/svg">
<path d="M1.0415 8.74996C1.0415 4.49278 4.49266 1.04163 8.74984 1.04163C13.007 1.04163 16.4582 4.49278 16.4582 8.74996C16.4582 13.0071 13.007 16.4583 8.74984 16.4583C4.49266 16.4583 1.0415 13.0071 1.0415 8.74996ZM8.74984 2.29163C5.18302 2.29163 2.2915 5.18314 2.2915 8.74996C2.2915 12.3168 5.18302 15.2083 8.74984 15.2083C12.3167 15.2083 15.2082 12.3168 15.2082 8.74996C15.2082 5.18314 12.3167 2.29163 8.74984 2.29163Z" fill="black"/>
<path d="M5.95087 5.53429C6.66653 4.81868 7.65696 4.37496 8.74984 4.37496C9.84271 4.37496 10.8331 4.81868 11.5488 5.53431C11.7929 5.77839 11.7929 6.17412 11.5488 6.41819C11.3047 6.66227 10.909 6.66227 10.6649 6.41819C10.1741 5.92741 9.49788 5.62496 8.74984 5.62496C8.00179 5.62496 7.32556 5.9274 6.83472 6.41821C6.59064 6.66228 6.19491 6.66226 5.95084 6.41818C5.70677 6.17409 5.70678 5.77836 5.95087 5.53429Z" fill="black"/>
<path d="M13.4003 13.4004C13.6444 13.1564 14.0401 13.1564 14.2842 13.4004L17.8197 16.936C18.0638 17.1801 18.0638 17.5758 17.8197 17.8199C17.5757 18.0639 17.1799 18.0639 16.9359 17.8199L13.4003 14.2843C13.1562 14.0402 13.1562 13.6445 13.4003 13.4004Z" fill="black"/>
<path fill-rule="evenodd" clip-rule="evenodd" d="M8.74984 2.29163C5.18302 2.29163 2.2915 5.18314 2.2915 8.74996C2.2915 12.3168 5.18302 15.2083 8.74984 15.2083C12.3167 15.2083 15.2082 12.3168 15.2082 8.74996C15.2082 5.18314 12.3167 2.29163 8.74984 2.29163ZM8.74984 4.37496C7.65696 4.37496 6.66653 4.81868 5.95087 5.53429C5.70678 5.77836 5.70677 6.17409 5.95084 6.41818C6.19491 6.66226 6.59064 6.66228 6.83472 6.41821C7.32556 5.9274 8.00179 5.62496 8.74984 5.62496C9.49788 5.62496 10.1741 5.92741 10.6649 6.41819C10.909 6.66227 11.3047 6.66227 11.5488 6.41819C11.7929 6.17412 11.7929 5.77839 11.5488 5.53431C10.8331 4.81868 9.84271 4.37496 8.74984 4.37496Z" fill="black"/>
</svg>
